<svg xmlns="http://www.w3.org/2000/svg" viewBox="0 0 512 512">
  <rect x="32" y="32" width="448" height="448" rx="100" fill="#14b8a6"/>
  
  <path fill="white" d="M352 176c0-44.2-35.8-80-80-80s-80 35.8-80 80v48c0 17.7-14.3 32-32 32H112c-17.7 0-32-14.3-32-32V176c0-70.7 57.3-128 128-128s128 57.3 128 128v48c0 17.7-14.3 32-32 32h-48c-17.7 0-32-14.3-32-32v-48z"/>
  <path fill="white" d="M168 288h176c30.9 0 56 25.1 56 56v64c0 26.5-21.5 48-48 48H160c-26.5 0-48-21.5-48-48v-64c0-30.9 25.1-56 56-56z"/>
</svg>